<mxfile host="Electron" agent="Mozilla/5.0 (Windows NT 10.0; Win64; x64) AppleWebKit/537.36 (KHTML, like Gecko) draw.io/24.7.5 Chrome/126.0.6478.183 Electron/31.3.0 Safari/537.36" version="24.7.5" pages="2">
  <diagram name="System Blocks" id="Izp98Wl2vfskXwLaV2CR">
    <mxGraphModel dx="819" dy="1657" grid="1" gridSize="10" guides="1" tooltips="1" connect="1" arrows="1" fold="1" page="1" pageScale="1" pageWidth="827" pageHeight="1169" math="0" shadow="0">
      <root>
        <mxCell id="0" />
        <mxCell id="1" parent="0" />
        <mxCell id="2fkLugSnOEY5k48dFEEA-56" style="edgeStyle=orthogonalEdgeStyle;rounded=0;orthogonalLoop=1;jettySize=auto;html=1;exitX=1;exitY=0.75;exitDx=0;exitDy=0;entryX=0;entryY=0.75;entryDx=0;entryDy=0;" parent="1" source="2fkLugSnOEY5k48dFEEA-1" target="2fkLugSnOEY5k48dFEEA-4" edge="1">
          <mxGeometry relative="1" as="geometry">
            <Array as="points">
              <mxPoint x="590" y="210" />
              <mxPoint x="590" y="250" />
              <mxPoint x="760" y="250" />
              <mxPoint x="760" y="210" />
            </Array>
          </mxGeometry>
        </mxCell>
        <mxCell id="2fkLugSnOEY5k48dFEEA-61" value="Game State, Bird Pos, Score" style="edgeLabel;html=1;align=center;verticalAlign=middle;resizable=0;points=[];" parent="2fkLugSnOEY5k48dFEEA-56" vertex="1" connectable="0">
          <mxGeometry x="-0.4625" relative="1" as="geometry">
            <mxPoint x="74" as="offset" />
          </mxGeometry>
        </mxCell>
        <mxCell id="2fkLugSnOEY5k48dFEEA-57" style="edgeStyle=orthogonalEdgeStyle;rounded=0;orthogonalLoop=1;jettySize=auto;html=1;exitX=1;exitY=0.25;exitDx=0;exitDy=0;entryX=0;entryY=0.25;entryDx=0;entryDy=0;" parent="1" source="2fkLugSnOEY5k48dFEEA-1" target="2fkLugSnOEY5k48dFEEA-3" edge="1">
          <mxGeometry relative="1" as="geometry" />
        </mxCell>
        <mxCell id="2fkLugSnOEY5k48dFEEA-60" value="Game State" style="edgeLabel;html=1;align=center;verticalAlign=middle;resizable=0;points=[];" parent="2fkLugSnOEY5k48dFEEA-57" vertex="1" connectable="0">
          <mxGeometry x="-0.4" relative="1" as="geometry">
            <mxPoint x="14" as="offset" />
          </mxGeometry>
        </mxCell>
        <mxCell id="2fkLugSnOEY5k48dFEEA-62" style="edgeStyle=orthogonalEdgeStyle;rounded=0;orthogonalLoop=1;jettySize=auto;html=1;exitX=1;exitY=0.75;exitDx=0;exitDy=0;entryX=0;entryY=0.5;entryDx=0;entryDy=0;" parent="1" source="2fkLugSnOEY5k48dFEEA-1" target="2fkLugSnOEY5k48dFEEA-22" edge="1">
          <mxGeometry relative="1" as="geometry">
            <Array as="points">
              <mxPoint x="590" y="210" />
              <mxPoint x="590" y="310" />
            </Array>
          </mxGeometry>
        </mxCell>
        <mxCell id="2fkLugSnOEY5k48dFEEA-63" value="SE Triggering" style="edgeLabel;html=1;align=center;verticalAlign=middle;resizable=0;points=[];" parent="2fkLugSnOEY5k48dFEEA-62" vertex="1" connectable="0">
          <mxGeometry x="-0.0353" relative="1" as="geometry">
            <mxPoint x="56" as="offset" />
          </mxGeometry>
        </mxCell>
        <mxCell id="2fkLugSnOEY5k48dFEEA-64" style="edgeStyle=orthogonalEdgeStyle;rounded=0;orthogonalLoop=1;jettySize=auto;html=1;entryX=0;entryY=0.5;entryDx=0;entryDy=0;" parent="1" source="2fkLugSnOEY5k48dFEEA-1" target="2fkLugSnOEY5k48dFEEA-44" edge="1">
          <mxGeometry relative="1" as="geometry">
            <Array as="points">
              <mxPoint x="520" y="70" />
            </Array>
          </mxGeometry>
        </mxCell>
        <mxCell id="2fkLugSnOEY5k48dFEEA-65" value="Reseed" style="edgeLabel;html=1;align=center;verticalAlign=middle;resizable=0;points=[];" parent="2fkLugSnOEY5k48dFEEA-64" vertex="1" connectable="0">
          <mxGeometry x="0.18" y="-1" relative="1" as="geometry">
            <mxPoint x="2" y="-1" as="offset" />
          </mxGeometry>
        </mxCell>
        <mxCell id="2fkLugSnOEY5k48dFEEA-68" style="edgeStyle=orthogonalEdgeStyle;rounded=0;orthogonalLoop=1;jettySize=auto;html=1;exitX=0;exitY=0.75;exitDx=0;exitDy=0;entryX=1;entryY=0.75;entryDx=0;entryDy=0;" parent="1" source="2fkLugSnOEY5k48dFEEA-1" target="2fkLugSnOEY5k48dFEEA-2" edge="1">
          <mxGeometry relative="1" as="geometry" />
        </mxCell>
        <mxCell id="2fkLugSnOEY5k48dFEEA-70" value="Clear State" style="edgeLabel;html=1;align=center;verticalAlign=middle;resizable=0;points=[];" parent="2fkLugSnOEY5k48dFEEA-68" vertex="1" connectable="0">
          <mxGeometry x="0.4208" relative="1" as="geometry">
            <mxPoint x="18" as="offset" />
          </mxGeometry>
        </mxCell>
        <mxCell id="2fkLugSnOEY5k48dFEEA-73" style="edgeStyle=orthogonalEdgeStyle;rounded=0;orthogonalLoop=1;jettySize=auto;html=1;exitX=0.25;exitY=1;exitDx=0;exitDy=0;entryX=0.25;entryY=0;entryDx=0;entryDy=0;" parent="1" source="2fkLugSnOEY5k48dFEEA-1" target="2fkLugSnOEY5k48dFEEA-72" edge="1">
          <mxGeometry relative="1" as="geometry" />
        </mxCell>
        <mxCell id="2fkLugSnOEY5k48dFEEA-75" value="W..." style="edgeLabel;html=1;align=center;verticalAlign=middle;resizable=0;points=[];" parent="2fkLugSnOEY5k48dFEEA-73" vertex="1" connectable="0">
          <mxGeometry x="0.0083" relative="1" as="geometry">
            <mxPoint as="offset" />
          </mxGeometry>
        </mxCell>
        <mxCell id="2fkLugSnOEY5k48dFEEA-1" value="&lt;b&gt;&lt;font style=&quot;font-size: 16px;&quot;&gt;Processor&lt;/font&gt;&lt;/b&gt;" style="whiteSpace=wrap;html=1;aspect=fixed;fillColor=#d5e8d4;strokeColor=#82b366;" parent="1" vertex="1">
          <mxGeometry x="480" y="150" width="80" height="80" as="geometry" />
        </mxCell>
        <mxCell id="2fkLugSnOEY5k48dFEEA-67" style="edgeStyle=orthogonalEdgeStyle;rounded=0;orthogonalLoop=1;jettySize=auto;html=1;exitX=1;exitY=0.25;exitDx=0;exitDy=0;entryX=0;entryY=0.25;entryDx=0;entryDy=0;" parent="1" source="2fkLugSnOEY5k48dFEEA-2" target="2fkLugSnOEY5k48dFEEA-1" edge="1">
          <mxGeometry relative="1" as="geometry" />
        </mxCell>
        <mxCell id="2fkLugSnOEY5k48dFEEA-69" value="Key State" style="edgeLabel;html=1;align=center;verticalAlign=middle;resizable=0;points=[];" parent="2fkLugSnOEY5k48dFEEA-67" vertex="1" connectable="0">
          <mxGeometry x="-0.3167" y="1" relative="1" as="geometry">
            <mxPoint x="10" as="offset" />
          </mxGeometry>
        </mxCell>
        <mxCell id="2fkLugSnOEY5k48dFEEA-2" value="&lt;font style=&quot;font-size: 16px;&quot;&gt;PS/2&lt;/font&gt;&lt;div style=&quot;font-size: 16px;&quot;&gt;&lt;font style=&quot;font-size: 16px;&quot;&gt;Controller&lt;/font&gt;&lt;/div&gt;" style="whiteSpace=wrap;html=1;aspect=fixed;fillColor=#f8cecc;strokeColor=#b85450;" parent="1" vertex="1">
          <mxGeometry x="320" y="150" width="80" height="80" as="geometry" />
        </mxCell>
        <mxCell id="2fkLugSnOEY5k48dFEEA-43" style="edgeStyle=orthogonalEdgeStyle;rounded=0;orthogonalLoop=1;jettySize=auto;html=1;entryX=0;entryY=0.5;entryDx=0;entryDy=0;" parent="1" source="2fkLugSnOEY5k48dFEEA-3" target="2fkLugSnOEY5k48dFEEA-4" edge="1">
          <mxGeometry relative="1" as="geometry" />
        </mxCell>
        <mxCell id="2fkLugSnOEY5k48dFEEA-53" value="Pipe Pos" style="edgeLabel;html=1;align=center;verticalAlign=middle;resizable=0;points=[];" parent="2fkLugSnOEY5k48dFEEA-43" vertex="1" connectable="0">
          <mxGeometry x="-0.22" y="-1" relative="1" as="geometry">
            <mxPoint x="9" y="-1" as="offset" />
          </mxGeometry>
        </mxCell>
        <mxCell id="2fkLugSnOEY5k48dFEEA-54" style="edgeStyle=orthogonalEdgeStyle;rounded=0;orthogonalLoop=1;jettySize=auto;html=1;entryX=1;entryY=0.5;entryDx=0;entryDy=0;" parent="1" source="2fkLugSnOEY5k48dFEEA-3" target="2fkLugSnOEY5k48dFEEA-1" edge="1">
          <mxGeometry relative="1" as="geometry" />
        </mxCell>
        <mxCell id="2fkLugSnOEY5k48dFEEA-55" value="Pipe Pos" style="edgeLabel;html=1;align=center;verticalAlign=middle;resizable=0;points=[];" parent="2fkLugSnOEY5k48dFEEA-54" vertex="1" connectable="0">
          <mxGeometry x="0.33" relative="1" as="geometry">
            <mxPoint x="13" as="offset" />
          </mxGeometry>
        </mxCell>
        <mxCell id="2fkLugSnOEY5k48dFEEA-3" value="&lt;font style=&quot;font-size: 16px;&quot;&gt;Game&lt;/font&gt;&lt;div style=&quot;font-size: 16px;&quot;&gt;&lt;font style=&quot;font-size: 16px;&quot;&gt;Logic&lt;/font&gt;&lt;/div&gt;&lt;div style=&quot;font-size: 16px;&quot;&gt;&lt;font style=&quot;font-size: 16px;&quot;&gt;Controller&lt;/font&gt;&lt;/div&gt;" style="whiteSpace=wrap;html=1;aspect=fixed;fillColor=#d5e8d4;strokeColor=#82b366;" parent="1" vertex="1">
          <mxGeometry x="640" y="150" width="80" height="80" as="geometry" />
        </mxCell>
        <mxCell id="2fkLugSnOEY5k48dFEEA-33" style="edgeStyle=orthogonalEdgeStyle;rounded=0;orthogonalLoop=1;jettySize=auto;html=1;exitX=1;exitY=0.25;exitDx=0;exitDy=0;entryX=0;entryY=0.25;entryDx=0;entryDy=0;" parent="1" source="2fkLugSnOEY5k48dFEEA-4" target="2fkLugSnOEY5k48dFEEA-5" edge="1">
          <mxGeometry relative="1" as="geometry" />
        </mxCell>
        <mxCell id="2fkLugSnOEY5k48dFEEA-35" value="Pixel RGB" style="edgeLabel;html=1;align=center;verticalAlign=middle;resizable=0;points=[];" parent="2fkLugSnOEY5k48dFEEA-33" vertex="1" connectable="0">
          <mxGeometry x="-0.2026" relative="1" as="geometry">
            <mxPoint x="4" as="offset" />
          </mxGeometry>
        </mxCell>
        <mxCell id="2fkLugSnOEY5k48dFEEA-48" style="edgeStyle=orthogonalEdgeStyle;rounded=0;orthogonalLoop=1;jettySize=auto;html=1;exitX=0.25;exitY=0;exitDx=0;exitDy=0;entryX=0.25;entryY=1;entryDx=0;entryDy=0;" parent="1" source="2fkLugSnOEY5k48dFEEA-4" target="2fkLugSnOEY5k48dFEEA-47" edge="1">
          <mxGeometry relative="1" as="geometry" />
        </mxCell>
        <mxCell id="2fkLugSnOEY5k48dFEEA-51" value="Addr" style="edgeLabel;html=1;align=center;verticalAlign=middle;resizable=0;points=[];" parent="2fkLugSnOEY5k48dFEEA-48" vertex="1" connectable="0">
          <mxGeometry x="-0.1667" relative="1" as="geometry">
            <mxPoint y="-3" as="offset" />
          </mxGeometry>
        </mxCell>
        <mxCell id="2fkLugSnOEY5k48dFEEA-4" value="&lt;font style=&quot;font-size: 16px;&quot;&gt;Game&lt;/font&gt;&lt;div style=&quot;font-size: 16px;&quot;&gt;&lt;font style=&quot;font-size: 16px;&quot;&gt;Rendering&lt;/font&gt;&lt;/div&gt;&lt;div style=&quot;font-size: 16px;&quot;&gt;&lt;font style=&quot;font-size: 16px;&quot;&gt;Controller&lt;/font&gt;&lt;/div&gt;" style="whiteSpace=wrap;html=1;aspect=fixed;fillColor=#d5e8d4;strokeColor=#82b366;" parent="1" vertex="1">
          <mxGeometry x="800" y="150" width="80" height="80" as="geometry" />
        </mxCell>
        <mxCell id="2fkLugSnOEY5k48dFEEA-10" style="edgeStyle=orthogonalEdgeStyle;rounded=0;orthogonalLoop=1;jettySize=auto;html=1;entryX=0;entryY=0.5;entryDx=0;entryDy=0;" parent="1" source="2fkLugSnOEY5k48dFEEA-5" target="2fkLugSnOEY5k48dFEEA-9" edge="1">
          <mxGeometry relative="1" as="geometry" />
        </mxCell>
        <mxCell id="2fkLugSnOEY5k48dFEEA-31" style="edgeStyle=orthogonalEdgeStyle;rounded=0;orthogonalLoop=1;jettySize=auto;html=1;exitX=0;exitY=0.75;exitDx=0;exitDy=0;entryX=1;entryY=0.75;entryDx=0;entryDy=0;" parent="1" source="2fkLugSnOEY5k48dFEEA-5" target="2fkLugSnOEY5k48dFEEA-4" edge="1">
          <mxGeometry relative="1" as="geometry" />
        </mxCell>
        <mxCell id="2fkLugSnOEY5k48dFEEA-50" value="Addr" style="edgeLabel;html=1;align=center;verticalAlign=middle;resizable=0;points=[];" parent="2fkLugSnOEY5k48dFEEA-31" vertex="1" connectable="0">
          <mxGeometry x="0.0296" y="1" relative="1" as="geometry">
            <mxPoint as="offset" />
          </mxGeometry>
        </mxCell>
        <mxCell id="2fkLugSnOEY5k48dFEEA-5" value="&lt;font style=&quot;font-size: 16px;&quot;&gt;VGA&lt;/font&gt;&lt;div style=&quot;font-size: 16px;&quot;&gt;&lt;font style=&quot;font-size: 16px;&quot;&gt;Controller&lt;/font&gt;&lt;/div&gt;" style="whiteSpace=wrap;html=1;aspect=fixed;fillColor=#f8cecc;strokeColor=#b85450;" parent="1" vertex="1">
          <mxGeometry x="970" y="150" width="80" height="80" as="geometry" />
        </mxCell>
        <mxCell id="2fkLugSnOEY5k48dFEEA-28" style="edgeStyle=orthogonalEdgeStyle;rounded=0;orthogonalLoop=1;jettySize=auto;html=1;entryX=0.5;entryY=0;entryDx=0;entryDy=0;" parent="1" source="2fkLugSnOEY5k48dFEEA-6" target="2fkLugSnOEY5k48dFEEA-5" edge="1">
          <mxGeometry relative="1" as="geometry" />
        </mxCell>
        <mxCell id="2fkLugSnOEY5k48dFEEA-34" value="HS, VS, Blank" style="edgeLabel;html=1;align=center;verticalAlign=middle;resizable=0;points=[];" parent="2fkLugSnOEY5k48dFEEA-28" vertex="1" connectable="0">
          <mxGeometry x="-0.1981" relative="1" as="geometry">
            <mxPoint as="offset" />
          </mxGeometry>
        </mxCell>
        <mxCell id="2fkLugSnOEY5k48dFEEA-6" value="&lt;font style=&quot;font-size: 16px;&quot;&gt;VGA&lt;/font&gt;&lt;div style=&quot;font-size: 16px;&quot;&gt;&lt;font style=&quot;font-size: 16px;&quot;&gt;Sync&lt;/font&gt;&lt;/div&gt;&lt;div style=&quot;font-size: 16px;&quot;&gt;&lt;font style=&quot;font-size: 16px;&quot;&gt;Gen&lt;/font&gt;&lt;/div&gt;" style="whiteSpace=wrap;html=1;aspect=fixed;fillColor=#f8cecc;strokeColor=#b85450;" parent="1" vertex="1">
          <mxGeometry x="970" y="30" width="80" height="80" as="geometry" />
        </mxCell>
        <mxCell id="2fkLugSnOEY5k48dFEEA-11" style="edgeStyle=orthogonalEdgeStyle;rounded=0;orthogonalLoop=1;jettySize=auto;html=1;entryX=0;entryY=0.5;entryDx=0;entryDy=0;" parent="1" source="2fkLugSnOEY5k48dFEEA-7" target="2fkLugSnOEY5k48dFEEA-2" edge="1">
          <mxGeometry relative="1" as="geometry" />
        </mxCell>
        <mxCell id="2fkLugSnOEY5k48dFEEA-7" value="&lt;font style=&quot;font-size: 16px;&quot;&gt;PS/2&lt;/font&gt;&lt;div style=&quot;font-size: 16px;&quot;&gt;&lt;font style=&quot;font-size: 16px;&quot;&gt;I/F&lt;/font&gt;&lt;/div&gt;" style="whiteSpace=wrap;html=1;aspect=fixed;fillColor=#fff2cc;strokeColor=#d6b656;" parent="1" vertex="1">
          <mxGeometry x="200" y="150" width="80" height="80" as="geometry" />
        </mxCell>
        <mxCell id="2fkLugSnOEY5k48dFEEA-9" value="&lt;font style=&quot;font-size: 16px;&quot;&gt;VGA&lt;/font&gt;&lt;div style=&quot;font-size: 16px;&quot;&gt;&lt;font style=&quot;font-size: 16px;&quot;&gt;I/F&lt;/font&gt;&lt;/div&gt;" style="whiteSpace=wrap;html=1;aspect=fixed;fillColor=#fff2cc;strokeColor=#d6b656;" parent="1" vertex="1">
          <mxGeometry x="1090" y="150" width="80" height="80" as="geometry" />
        </mxCell>
        <mxCell id="2fkLugSnOEY5k48dFEEA-15" style="edgeStyle=orthogonalEdgeStyle;rounded=0;orthogonalLoop=1;jettySize=auto;html=1;entryX=0;entryY=0.5;entryDx=0;entryDy=0;" parent="1" source="2fkLugSnOEY5k48dFEEA-12" target="2fkLugSnOEY5k48dFEEA-14" edge="1">
          <mxGeometry relative="1" as="geometry" />
        </mxCell>
        <mxCell id="2fkLugSnOEY5k48dFEEA-12" value="&lt;font style=&quot;font-size: 16px;&quot;&gt;𝑓&lt;sub style=&quot;&quot;&gt;master&lt;/sub&gt;&lt;/font&gt;&lt;div style=&quot;font-size: 16px;&quot;&gt;&lt;font style=&quot;font-size: 16px;&quot;&gt;(50MHz)&lt;/font&gt;&lt;/div&gt;" style="whiteSpace=wrap;html=1;aspect=fixed;fillColor=#fff2cc;strokeColor=#d6b656;" parent="1" vertex="1">
          <mxGeometry x="533" y="-280" width="80" height="80" as="geometry" />
        </mxCell>
        <mxCell id="2fkLugSnOEY5k48dFEEA-13" value="&lt;font style=&quot;font-size: 16px;&quot;&gt;𝑓&lt;sub style=&quot;&quot;&gt;VGA&lt;/sub&gt;&lt;/font&gt;&lt;div style=&quot;font-size: 16px;&quot;&gt;&lt;font style=&quot;font-size: 16px;&quot;&gt;(25MHz)&lt;/font&gt;&lt;/div&gt;" style="whiteSpace=wrap;html=1;aspect=fixed;" parent="1" vertex="1">
          <mxGeometry x="720" y="-280" width="80" height="80" as="geometry" />
        </mxCell>
        <mxCell id="2fkLugSnOEY5k48dFEEA-16" style="edgeStyle=orthogonalEdgeStyle;rounded=0;orthogonalLoop=1;jettySize=auto;html=1;entryX=0;entryY=0.5;entryDx=0;entryDy=0;" parent="1" source="2fkLugSnOEY5k48dFEEA-14" target="2fkLugSnOEY5k48dFEEA-13" edge="1">
          <mxGeometry relative="1" as="geometry" />
        </mxCell>
        <mxCell id="2fkLugSnOEY5k48dFEEA-25" style="edgeStyle=orthogonalEdgeStyle;rounded=0;orthogonalLoop=1;jettySize=auto;html=1;entryX=0;entryY=0.5;entryDx=0;entryDy=0;" parent="1" source="2fkLugSnOEY5k48dFEEA-14" target="2fkLugSnOEY5k48dFEEA-24" edge="1">
          <mxGeometry relative="1" as="geometry">
            <Array as="points">
              <mxPoint x="703" y="-240" />
              <mxPoint x="703" y="-150" />
            </Array>
          </mxGeometry>
        </mxCell>
        <mxCell id="2fkLugSnOEY5k48dFEEA-14" value="&lt;font style=&quot;font-size: 16px;&quot;&gt;PLL&lt;/font&gt;" style="rounded=0;whiteSpace=wrap;html=1;fillColor=#f8cecc;strokeColor=#b85450;" parent="1" vertex="1">
          <mxGeometry x="643" y="-280" width="40" height="80" as="geometry" />
        </mxCell>
        <mxCell id="2fkLugSnOEY5k48dFEEA-20" style="edgeStyle=orthogonalEdgeStyle;rounded=0;orthogonalLoop=1;jettySize=auto;html=1;entryX=0;entryY=0.5;entryDx=0;entryDy=0;" parent="1" source="2fkLugSnOEY5k48dFEEA-17" target="2fkLugSnOEY5k48dFEEA-19" edge="1">
          <mxGeometry relative="1" as="geometry" />
        </mxCell>
        <mxCell id="2fkLugSnOEY5k48dFEEA-39" style="edgeStyle=orthogonalEdgeStyle;rounded=0;orthogonalLoop=1;jettySize=auto;html=1;exitX=0.75;exitY=1;exitDx=0;exitDy=0;entryX=0.75;entryY=0;entryDx=0;entryDy=0;" parent="1" source="2fkLugSnOEY5k48dFEEA-17" target="2fkLugSnOEY5k48dFEEA-18" edge="1">
          <mxGeometry relative="1" as="geometry" />
        </mxCell>
        <mxCell id="2fkLugSnOEY5k48dFEEA-41" value="Addr" style="edgeLabel;html=1;align=center;verticalAlign=middle;resizable=0;points=[];" parent="2fkLugSnOEY5k48dFEEA-39" vertex="1" connectable="0">
          <mxGeometry x="-0.1109" relative="1" as="geometry">
            <mxPoint as="offset" />
          </mxGeometry>
        </mxCell>
        <mxCell id="2fkLugSnOEY5k48dFEEA-17" value="&lt;font style=&quot;font-size: 15px;&quot;&gt;Audio&lt;/font&gt;&lt;div style=&quot;font-size: 15px;&quot;&gt;&lt;font style=&quot;font-size: 15px;&quot;&gt;Synthesizer&lt;/font&gt;&lt;/div&gt;&lt;div style=&quot;font-size: 15px;&quot;&gt;&lt;font style=&quot;font-size: 15px;&quot;&gt;(PSG)&lt;/font&gt;&lt;/div&gt;" style="whiteSpace=wrap;html=1;aspect=fixed;fillColor=#f8cecc;strokeColor=#b85450;" parent="1" vertex="1">
          <mxGeometry x="970" y="270" width="80" height="80" as="geometry" />
        </mxCell>
        <mxCell id="2fkLugSnOEY5k48dFEEA-40" style="edgeStyle=orthogonalEdgeStyle;rounded=0;orthogonalLoop=1;jettySize=auto;html=1;exitX=0.25;exitY=0;exitDx=0;exitDy=0;entryX=0.25;entryY=1;entryDx=0;entryDy=0;" parent="1" source="2fkLugSnOEY5k48dFEEA-18" target="2fkLugSnOEY5k48dFEEA-17" edge="1">
          <mxGeometry relative="1" as="geometry" />
        </mxCell>
        <mxCell id="2fkLugSnOEY5k48dFEEA-42" value="Sample&lt;div&gt;Point&lt;/div&gt;" style="edgeLabel;html=1;align=center;verticalAlign=middle;resizable=0;points=[];" parent="2fkLugSnOEY5k48dFEEA-40" vertex="1" connectable="0">
          <mxGeometry x="-0.0615" relative="1" as="geometry">
            <mxPoint as="offset" />
          </mxGeometry>
        </mxCell>
        <mxCell id="2fkLugSnOEY5k48dFEEA-18" value="&lt;div style=&quot;font-size: 16px;&quot;&gt;&lt;br&gt;&lt;/div&gt;&lt;div style=&quot;font-size: 16px;&quot;&gt;&lt;br&gt;&lt;/div&gt;&lt;font style=&quot;font-size: 16px;&quot;&gt;Wavet&lt;/font&gt;&lt;span style=&quot;font-size: 16px; background-color: initial;&quot;&gt;able&lt;/span&gt;&lt;div style=&quot;font-size: 16px;&quot;&gt;&lt;font style=&quot;font-size: 16px;&quot;&gt;LUT&lt;/font&gt;&lt;/div&gt;" style="whiteSpace=wrap;html=1;aspect=fixed;fillColor=#f8cecc;strokeColor=#b85450;" parent="1" vertex="1">
          <mxGeometry x="970" y="400" width="80" height="80" as="geometry" />
        </mxCell>
        <mxCell id="2fkLugSnOEY5k48dFEEA-19" value="&lt;div style=&quot;font-size: 16px;&quot;&gt;&lt;font style=&quot;font-size: 16px;&quot;&gt;Audio&lt;/font&gt;&lt;/div&gt;&lt;div style=&quot;font-size: 16px;&quot;&gt;&lt;font style=&quot;font-size: 16px;&quot;&gt;Codec&lt;/font&gt;&lt;/div&gt;&lt;div style=&quot;font-size: 16px;&quot;&gt;&lt;font style=&quot;font-size: 16px;&quot;&gt;I/F&lt;/font&gt;&lt;/div&gt;" style="whiteSpace=wrap;html=1;aspect=fixed;fillColor=#fff2cc;strokeColor=#d6b656;" parent="1" vertex="1">
          <mxGeometry x="1090" y="270" width="80" height="80" as="geometry" />
        </mxCell>
        <mxCell id="2fkLugSnOEY5k48dFEEA-23" style="edgeStyle=orthogonalEdgeStyle;rounded=0;orthogonalLoop=1;jettySize=auto;html=1;entryX=0;entryY=0.5;entryDx=0;entryDy=0;" parent="1" source="2fkLugSnOEY5k48dFEEA-22" target="2fkLugSnOEY5k48dFEEA-17" edge="1">
          <mxGeometry relative="1" as="geometry" />
        </mxCell>
        <mxCell id="2fkLugSnOEY5k48dFEEA-37" value="EN, Freq" style="edgeLabel;html=1;align=center;verticalAlign=middle;resizable=0;points=[];" parent="2fkLugSnOEY5k48dFEEA-23" vertex="1" connectable="0">
          <mxGeometry x="-0.6406" relative="1" as="geometry">
            <mxPoint x="24" as="offset" />
          </mxGeometry>
        </mxCell>
        <mxCell id="2fkLugSnOEY5k48dFEEA-22" value="&lt;div style=&quot;font-size: 16px;&quot;&gt;&lt;font style=&quot;font-size: 16px;&quot;&gt;Musical&lt;/font&gt;&lt;/div&gt;&lt;div style=&quot;font-size: 16px;&quot;&gt;&lt;font style=&quot;font-size: 16px;&quot;&gt;Score&lt;/font&gt;&lt;/div&gt;&lt;div style=&quot;font-size: 16px;&quot;&gt;&lt;font style=&quot;font-size: 16px;&quot;&gt;Sequential&lt;/font&gt;&lt;/div&gt;&lt;div style=&quot;font-size: 16px;&quot;&gt;&lt;font style=&quot;font-size: 16px;&quot;&gt;LUTs&lt;/font&gt;&lt;/div&gt;" style="whiteSpace=wrap;html=1;aspect=fixed;fillColor=#d5e8d4;strokeColor=#82b366;" parent="1" vertex="1">
          <mxGeometry x="800" y="270" width="80" height="80" as="geometry" />
        </mxCell>
        <mxCell id="2fkLugSnOEY5k48dFEEA-24" value="&lt;font style=&quot;font-size: 16px;&quot;&gt;&lt;font style=&quot;font-size: 16px;&quot;&gt;𝑓&lt;/font&gt;&lt;font style=&quot;font-size: 16px;&quot;&gt;&lt;sub&gt;audio&lt;/sub&gt;&lt;/font&gt;&lt;/font&gt;&lt;div style=&quot;font-size: 16px;&quot;&gt;&lt;font style=&quot;font-size: 16px;&quot;&gt;(18.4MHz)&lt;/font&gt;&lt;/div&gt;" style="whiteSpace=wrap;html=1;aspect=fixed;" parent="1" vertex="1">
          <mxGeometry x="720" y="-190" width="80" height="80" as="geometry" />
        </mxCell>
        <mxCell id="2fkLugSnOEY5k48dFEEA-45" style="edgeStyle=orthogonalEdgeStyle;rounded=0;orthogonalLoop=1;jettySize=auto;html=1;entryX=0.5;entryY=0;entryDx=0;entryDy=0;" parent="1" source="2fkLugSnOEY5k48dFEEA-44" target="2fkLugSnOEY5k48dFEEA-3" edge="1">
          <mxGeometry relative="1" as="geometry" />
        </mxCell>
        <mxCell id="2fkLugSnOEY5k48dFEEA-46" value="Random Number" style="edgeLabel;html=1;align=center;verticalAlign=middle;resizable=0;points=[];" parent="2fkLugSnOEY5k48dFEEA-45" vertex="1" connectable="0">
          <mxGeometry x="-0.0879" relative="1" as="geometry">
            <mxPoint as="offset" />
          </mxGeometry>
        </mxCell>
        <mxCell id="2fkLugSnOEY5k48dFEEA-44" value="&lt;div style=&quot;font-size: 16px;&quot;&gt;&lt;font style=&quot;font-size: 16px;&quot;&gt;LFSR&lt;/font&gt;&lt;/div&gt;&lt;div style=&quot;font-size: 16px;&quot;&gt;&lt;font style=&quot;font-size: 16px;&quot;&gt;based&lt;/font&gt;&lt;/div&gt;&lt;font style=&quot;font-size: 16px;&quot;&gt;PRNG&lt;/font&gt;" style="whiteSpace=wrap;html=1;aspect=fixed;fillColor=#d5e8d4;strokeColor=#82b366;" parent="1" vertex="1">
          <mxGeometry x="640" y="30" width="80" height="80" as="geometry" />
        </mxCell>
        <mxCell id="2fkLugSnOEY5k48dFEEA-49" style="edgeStyle=orthogonalEdgeStyle;rounded=0;orthogonalLoop=1;jettySize=auto;html=1;exitX=0.75;exitY=1;exitDx=0;exitDy=0;entryX=0.75;entryY=0;entryDx=0;entryDy=0;" parent="1" source="2fkLugSnOEY5k48dFEEA-47" target="2fkLugSnOEY5k48dFEEA-4" edge="1">
          <mxGeometry relative="1" as="geometry" />
        </mxCell>
        <mxCell id="2fkLugSnOEY5k48dFEEA-52" value="Value" style="edgeLabel;html=1;align=center;verticalAlign=middle;resizable=0;points=[];" parent="2fkLugSnOEY5k48dFEEA-49" vertex="1" connectable="0">
          <mxGeometry x="-0.0833" relative="1" as="geometry">
            <mxPoint as="offset" />
          </mxGeometry>
        </mxCell>
        <mxCell id="2fkLugSnOEY5k48dFEEA-47" value="&lt;div style=&quot;font-size: 16px;&quot;&gt;&lt;font style=&quot;font-size: 16px;&quot;&gt;Palette,&lt;/font&gt;&lt;/div&gt;&lt;div style=&quot;font-size: 16px;&quot;&gt;&lt;font style=&quot;font-size: 16px;&quot;&gt;Img Assets&lt;/font&gt;&lt;/div&gt;&lt;div style=&quot;font-size: 16px;&quot;&gt;&lt;font style=&quot;font-size: 16px;&quot;&gt;ROMs&lt;/font&gt;&lt;/div&gt;" style="whiteSpace=wrap;html=1;aspect=fixed;fillColor=#d5e8d4;strokeColor=#82b366;" parent="1" vertex="1">
          <mxGeometry x="800" y="30" width="80" height="80" as="geometry" />
        </mxCell>
        <mxCell id="2fkLugSnOEY5k48dFEEA-74" style="edgeStyle=orthogonalEdgeStyle;rounded=0;orthogonalLoop=1;jettySize=auto;html=1;exitX=0.75;exitY=0;exitDx=0;exitDy=0;entryX=0.75;entryY=1;entryDx=0;entryDy=0;" parent="1" source="2fkLugSnOEY5k48dFEEA-72" target="2fkLugSnOEY5k48dFEEA-1" edge="1">
          <mxGeometry relative="1" as="geometry" />
        </mxCell>
        <mxCell id="2fkLugSnOEY5k48dFEEA-76" value="R..." style="edgeLabel;html=1;align=center;verticalAlign=middle;resizable=0;points=[];" parent="2fkLugSnOEY5k48dFEEA-74" vertex="1" connectable="0">
          <mxGeometry x="-0.0083" y="1" relative="1" as="geometry">
            <mxPoint as="offset" />
          </mxGeometry>
        </mxCell>
        <mxCell id="2fkLugSnOEY5k48dFEEA-72" value="&lt;font style=&quot;font-size: 16px;&quot;&gt;Regfile,&lt;/font&gt;&lt;div style=&quot;font-size: 16px;&quot;&gt;&lt;font style=&quot;font-size: 16px;&quot;&gt;I/DMEM&lt;/font&gt;&lt;/div&gt;" style="whiteSpace=wrap;html=1;aspect=fixed;fillColor=#d5e8d4;strokeColor=#82b366;" parent="1" vertex="1">
          <mxGeometry x="480" y="310" width="80" height="80" as="geometry" />
        </mxCell>
        <mxCell id="2fkLugSnOEY5k48dFEEA-86" style="edgeStyle=orthogonalEdgeStyle;rounded=0;orthogonalLoop=1;jettySize=auto;html=1;entryX=1;entryY=0.5;entryDx=0;entryDy=0;" parent="1" source="2fkLugSnOEY5k48dFEEA-77" target="2fkLugSnOEY5k48dFEEA-79" edge="1">
          <mxGeometry relative="1" as="geometry" />
        </mxCell>
        <mxCell id="2fkLugSnOEY5k48dFEEA-87" style="edgeStyle=orthogonalEdgeStyle;rounded=0;orthogonalLoop=1;jettySize=auto;html=1;entryX=1;entryY=0.5;entryDx=0;entryDy=0;" parent="1" source="2fkLugSnOEY5k48dFEEA-77" target="2fkLugSnOEY5k48dFEEA-80" edge="1">
          <mxGeometry relative="1" as="geometry" />
        </mxCell>
        <mxCell id="2fkLugSnOEY5k48dFEEA-88" style="edgeStyle=orthogonalEdgeStyle;rounded=0;orthogonalLoop=1;jettySize=auto;html=1;entryX=1;entryY=0.5;entryDx=0;entryDy=0;" parent="1" source="2fkLugSnOEY5k48dFEEA-77" target="2fkLugSnOEY5k48dFEEA-81" edge="1">
          <mxGeometry relative="1" as="geometry" />
        </mxCell>
        <mxCell id="2fkLugSnOEY5k48dFEEA-77" value="&lt;font style=&quot;font-size: 16px;&quot;&gt;Div&lt;/font&gt;&lt;div style=&quot;font-size: 16px;&quot;&gt;&lt;font style=&quot;font-size: 16px;&quot;&gt;/4&lt;/font&gt;&lt;/div&gt;" style="rounded=0;whiteSpace=wrap;html=1;fillColor=#d5e8d4;strokeColor=#82b366;" parent="1" vertex="1">
          <mxGeometry x="463" y="-280" width="40" height="80" as="geometry" />
        </mxCell>
        <mxCell id="2fkLugSnOEY5k48dFEEA-78" style="edgeStyle=orthogonalEdgeStyle;rounded=0;orthogonalLoop=1;jettySize=auto;html=1;entryX=1.08;entryY=0.49;entryDx=0;entryDy=0;entryPerimeter=0;" parent="1" source="2fkLugSnOEY5k48dFEEA-12" target="2fkLugSnOEY5k48dFEEA-77" edge="1">
          <mxGeometry relative="1" as="geometry" />
        </mxCell>
        <mxCell id="2fkLugSnOEY5k48dFEEA-79" value="&lt;font style=&quot;font-size: 16px;&quot;&gt;𝑓&lt;sub style=&quot;&quot;&gt;CPU&lt;/sub&gt;&lt;/font&gt;&lt;div style=&quot;font-size: 16px;&quot;&gt;&lt;font style=&quot;font-size: 16px;&quot;&gt;(12.5MHz)&lt;/font&gt;&lt;/div&gt;" style="whiteSpace=wrap;html=1;aspect=fixed;" parent="1" vertex="1">
          <mxGeometry x="343" y="-280" width="80" height="80" as="geometry" />
        </mxCell>
        <mxCell id="2fkLugSnOEY5k48dFEEA-80" value="&lt;font style=&quot;font-size: 16px;&quot;&gt;𝑓&lt;sub style=&quot;&quot;&gt;PS2&lt;/sub&gt;&lt;/font&gt;&lt;div style=&quot;font-size: 16px;&quot;&gt;&lt;font style=&quot;font-size: 16px;&quot;&gt;(12.5MHz)&lt;/font&gt;&lt;/div&gt;" style="whiteSpace=wrap;html=1;aspect=fixed;" parent="1" vertex="1">
          <mxGeometry x="343" y="-185" width="80" height="80" as="geometry" />
        </mxCell>
        <mxCell id="2fkLugSnOEY5k48dFEEA-81" value="&lt;font style=&quot;font-size: 16px;&quot;&gt;𝑓&lt;sub style=&quot;&quot;&gt;Game&lt;/sub&gt;&lt;/font&gt;&lt;div style=&quot;font-size: 16px;&quot;&gt;&lt;font style=&quot;font-size: 16px;&quot;&gt;(12.5MHz)&lt;/font&gt;&lt;/div&gt;" style="whiteSpace=wrap;html=1;aspect=fixed;" parent="1" vertex="1">
          <mxGeometry x="343" y="-85" width="80" height="80" as="geometry" />
        </mxCell>
        <mxCell id="2fkLugSnOEY5k48dFEEA-89" value="&lt;font style=&quot;font-size: 16px;&quot;&gt;Button 0&lt;/font&gt;" style="whiteSpace=wrap;html=1;aspect=fixed;fillColor=#fff2cc;strokeColor=#d6b656;" parent="1" vertex="1">
          <mxGeometry x="880" y="-280" width="80" height="80" as="geometry" />
        </mxCell>
        <mxCell id="2fkLugSnOEY5k48dFEEA-90" value="&lt;font style=&quot;font-size: 16px;&quot;&gt;Power&lt;/font&gt;&lt;div style=&quot;font-size: 16px;&quot;&gt;&lt;font style=&quot;font-size: 16px;&quot;&gt;On&lt;/font&gt;&lt;/div&gt;&lt;div style=&quot;font-size: 16px;&quot;&gt;&lt;font style=&quot;font-size: 16px;&quot;&gt;Reset&lt;/font&gt;&lt;/div&gt;" style="whiteSpace=wrap;html=1;aspect=fixed;fillColor=#f8cecc;strokeColor=#b85450;" parent="1" vertex="1">
          <mxGeometry x="880" y="-185" width="80" height="80" as="geometry" />
        </mxCell>
        <mxCell id="2fkLugSnOEY5k48dFEEA-94" style="edgeStyle=orthogonalEdgeStyle;rounded=0;orthogonalLoop=1;jettySize=auto;html=1;exitX=1;exitY=0.5;exitDx=0;exitDy=0;exitPerimeter=0;endArrow=none;endFill=0;" parent="1" source="2fkLugSnOEY5k48dFEEA-91" edge="1">
          <mxGeometry relative="1" as="geometry">
            <mxPoint x="1160" y="-189.8571428571429" as="targetPoint" />
          </mxGeometry>
        </mxCell>
        <mxCell id="2fkLugSnOEY5k48dFEEA-95" value="&lt;font style=&quot;font-size: 16px;&quot;&gt;RESET&lt;/font&gt;" style="edgeLabel;html=1;align=center;verticalAlign=middle;resizable=0;points=[];" parent="2fkLugSnOEY5k48dFEEA-94" vertex="1" connectable="0">
          <mxGeometry x="0.4449" y="1" relative="1" as="geometry">
            <mxPoint x="37" y="1" as="offset" />
          </mxGeometry>
        </mxCell>
        <mxCell id="2fkLugSnOEY5k48dFEEA-91" value="" style="verticalLabelPosition=bottom;shadow=0;dashed=0;align=center;html=1;verticalAlign=top;shape=mxgraph.electrical.logic_gates.logic_gate;operation=or;" parent="1" vertex="1">
          <mxGeometry x="1000" y="-220" width="100" height="60" as="geometry" />
        </mxCell>
        <mxCell id="2fkLugSnOEY5k48dFEEA-92" style="edgeStyle=orthogonalEdgeStyle;rounded=0;orthogonalLoop=1;jettySize=auto;html=1;entryX=0;entryY=0.25;entryDx=0;entryDy=0;entryPerimeter=0;endArrow=none;endFill=0;" parent="1" source="2fkLugSnOEY5k48dFEEA-89" target="2fkLugSnOEY5k48dFEEA-91" edge="1">
          <mxGeometry relative="1" as="geometry" />
        </mxCell>
        <mxCell id="2fkLugSnOEY5k48dFEEA-93" style="edgeStyle=orthogonalEdgeStyle;rounded=0;orthogonalLoop=1;jettySize=auto;html=1;entryX=0;entryY=0.75;entryDx=0;entryDy=0;entryPerimeter=0;endArrow=none;endFill=0;" parent="1" source="2fkLugSnOEY5k48dFEEA-90" target="2fkLugSnOEY5k48dFEEA-91" edge="1">
          <mxGeometry relative="1" as="geometry" />
        </mxCell>
        <mxCell id="NXpz_BeAlNmFylxSO6AK-1" value="" style="pointerEvents=1;verticalLabelPosition=bottom;shadow=0;dashed=0;align=center;html=1;verticalAlign=top;shape=mxgraph.electrical.electro-mechanical.loudspeaker;" parent="1" vertex="1">
          <mxGeometry x="1170" y="285" width="25" height="50" as="geometry" />
        </mxCell>
        <mxCell id="NXpz_BeAlNmFylxSO6AK-2" value="" style="html=1;verticalLabelPosition=bottom;align=center;labelBackgroundColor=#ffffff;verticalAlign=top;strokeWidth=2;strokeColor=#000000;shadow=0;dashed=0;shape=mxgraph.ios7.icons.monitor;" parent="1" vertex="1">
          <mxGeometry x="1190" y="175.12" width="40" height="29.75" as="geometry" />
        </mxCell>
        <mxCell id="NXpz_BeAlNmFylxSO6AK-3" style="edgeStyle=orthogonalEdgeStyle;rounded=0;orthogonalLoop=1;jettySize=auto;html=1;entryX=0.008;entryY=0.497;entryDx=0;entryDy=0;entryPerimeter=0;" parent="1" source="2fkLugSnOEY5k48dFEEA-9" target="NXpz_BeAlNmFylxSO6AK-2" edge="1">
          <mxGeometry relative="1" as="geometry" />
        </mxCell>
        <mxCell id="NXpz_BeAlNmFylxSO6AK-6" style="edgeStyle=orthogonalEdgeStyle;rounded=0;orthogonalLoop=1;jettySize=auto;html=1;entryX=0;entryY=0.5;entryDx=0;entryDy=0;" parent="1" source="NXpz_BeAlNmFylxSO6AK-4" target="2fkLugSnOEY5k48dFEEA-7" edge="1">
          <mxGeometry relative="1" as="geometry" />
        </mxCell>
        <mxCell id="NXpz_BeAlNmFylxSO6AK-4" value="" style="sketch=0;aspect=fixed;pointerEvents=1;shadow=0;dashed=0;html=1;strokeColor=none;labelPosition=center;verticalLabelPosition=bottom;verticalAlign=top;align=center;fillColor=#000000;shape=mxgraph.mscae.enterprise.keyboard" parent="1" vertex="1">
          <mxGeometry x="120" y="175" width="50" height="30" as="geometry" />
        </mxCell>
        <mxCell id="NXpz_BeAlNmFylxSO6AK-7" value="" style="pointerEvents=1;verticalLabelPosition=bottom;shadow=0;dashed=0;align=center;html=1;verticalAlign=top;shape=mxgraph.electrical.waveforms.square_wave;" parent="1" vertex="1">
          <mxGeometry x="998.5" y="412" width="23" height="20" as="geometry" />
        </mxCell>
      </root>
    </mxGraphModel>
  </diagram>
  <diagram id="Mmv9_9U3NMtfpw5dZJgW" name="Processor Logic">
    <mxGraphModel dx="2954" dy="1214" grid="1" gridSize="10" guides="1" tooltips="1" connect="1" arrows="1" fold="1" page="1" pageScale="1" pageWidth="827" pageHeight="1169" math="0" shadow="0">
      <root>
        <mxCell id="0" />
        <mxCell id="1" parent="0" />
      </root>
    </mxGraphModel>
  </diagram>
</mxfile>
